<svg xmlns="http://www.w3.org/2000/svg" height="24px" viewBox="0 -960 960 960" width="24px" fill="#e3e3e3"><path d="m326.15-326.15 232.31-75.39 75.39-232.31-232.31 75.39-75.39 232.31Zm153.67-109.23q-18.67 0-31.55-13.07-12.89-13.07-12.89-31.73 0-18.67 13.07-31.55 13.07-12.89 31.73-12.89 18.67 0 31.55 13.07 12.89 13.07 12.89 31.73 0 18.67-13.07 31.55-13.07 12.89-31.73 12.89Zm.31 315.38q-74.67 0-140.41-28.34-65.73-28.34-114.36-76.92-48.63-48.58-76.99-114.26Q120-405.19 120-479.87q0-74.67 28.34-140.41 28.34-65.73 76.92-114.36 48.58-48.63 114.26-76.99Q405.19-840 479.87-840q74.67 0 140.41 28.34 65.73 28.34 114.36 76.92 48.63 48.58 76.99 114.26Q840-554.81 840-480.13q0 74.67-28.34 140.41-28.34 65.73-76.92 114.36-48.58 48.63-114.26 76.99Q554.81-120 480.13-120Zm-.13-40q133.77 0 226.88-93.12Q800-346.23 800-480q0-133.77-93.12-226.88Q613.77-800 480-800q-133.77 0-226.88 93.12Q160-613.77 160-480q0 133.77 93.12 226.88Q346.23-160 480-160Zm0-320Z"/></svg>